<?xml version="1.0" encoding="UTF-8" standalone="no"?>
<!-- Created with Inkscape (http://www.inkscape.org/) -->

<svg
   width="800"
   height="400"
   viewBox="0 0 211.66667 105.83334"
   version="1.1"
   id="svg1310"
   inkscape:version="1.2.1 (9c6d41e410, 2022-07-14)"
   sodipodi:docname="Kraken-Footer-Logo.svg"
   inkscape:export-filename="krakenlogo-light-4.png"
   inkscape:export-xdpi="300"
   inkscape:export-ydpi="300"
   xmlns:inkscape="http://www.inkscape.org/namespaces/inkscape"
   xmlns:sodipodi="http://sodipodi.sourceforge.net/DTD/sodipodi-0.dtd"
   xmlns="http://www.w3.org/2000/svg"
   xmlns:svg="http://www.w3.org/2000/svg">
  <sodipodi:namedview
     id="namedview1312"
     pagecolor="#ffffff"
     bordercolor="#000000"
     borderopacity="0.25"
     inkscape:showpageshadow="2"
     inkscape:pageopacity="0.0"
     inkscape:pagecheckerboard="0"
     inkscape:deskcolor="#d1d1d1"
     inkscape:document-units="mm"
     showgrid="true"
     inkscape:zoom="0.5"
     inkscape:cx="-378"
     inkscape:cy="104"
     inkscape:window-width="2560"
     inkscape:window-height="1494"
     inkscape:window-x="2869"
     inkscape:window-y="163"
     inkscape:window-maximized="1"
     inkscape:current-layer="layer1"
     showguides="true">
    <inkscape:grid
       type="xygrid"
       id="grid1314"
       empspacing="40"
       originx="0"
       originy="0" />
    <sodipodi:guide
       position="78.448959,40.018232"
       orientation="0,-1"
       id="guide1538"
       inkscape:locked="false" />
    <sodipodi:guide
       position="42.301296,74.082303"
       orientation="0,-1"
       id="guide1566"
       inkscape:locked="false" />
  </sodipodi:namedview>
  <defs
     id="defs1307" />
  <g
     inkscape:label="Layer 1"
     inkscape:groupmode="layer"
     id="layer1">
    <path
       id="text1370"
       style="font-size:130.757px;fill:#0f2029;stroke-width:0.24517;fill-opacity:1"
       d="M 41.842106 0 C 34.171037 1.351385e-15 27.938536 1.69981 23.144117 5.0994887 C 18.349699 8.4991674 15.952288 13.686139 15.952288 20.659838 L 15.952288 40.01193 C 15.952288 44.370492 14.557797 47.464833 11.768317 49.295429 C 9.0660084 51.126025 5.1431037 52.085078 0 52.172249 L 0 61.717632 C 5.1431037 61.717632 9.0660084 62.676127 11.768317 64.593895 C 14.557797 66.424491 15.952288 69.563159 15.952288 74.008893 L 15.952288 93.230043 C 15.952288 100.20374 18.262363 105.39016 22.882439 108.78984 C 27.502516 112.18951 33.822352 113.93309 41.842106 114.02027 L 41.842106 104.60582 C 37.22203 104.51865 33.647988 103.51639 31.120022 101.59862 C 28.592056 99.768024 27.328088 96.716897 27.328088 92.445506 L 27.328088 73.224356 C 27.328088 64.245717 22.577414 58.927992 13.075748 57.271738 L 13.075748 56.487201 C 22.577414 54.830947 27.328088 49.513222 27.328088 40.534583 L 27.328088 21.705702 C 27.328088 17.434311 28.592056 14.383184 31.120022 12.552588 C 33.735159 10.63482 37.309202 9.5887832 41.842106 9.4144407 L 41.842106 0 z M 154.46425 0.0050147944 L 154.46425 9.4200127 C 159.08433 9.5071839 162.65837 10.50945 165.18634 12.427218 C 167.7143 14.257814 168.97827 17.308941 168.97827 21.580332 L 168.97827 40.67054 C 168.97827 49.649178 173.72895 54.966904 183.23061 56.623158 L 183.23061 57.407695 C 173.72895 59.063948 168.97827 64.381117 168.97827 73.359756 L 168.97827 92.319579 C 168.97827 96.59097 167.67064 99.642097 165.0555 101.47269 C 162.52753 103.39046 158.99716 104.4365 154.46425 104.61084 L 154.46425 114.02528 C 162.13532 114.02528 168.36782 112.32547 173.16224 108.92579 C 177.95666 105.52611 180.35407 100.3397 180.35407 93.365999 L 180.35407 73.882966 C 180.35407 69.524403 181.7049 66.430063 184.4072 64.599467 C 187.19668 62.768871 191.16326 61.809818 196.30636 61.722647 L 196.30636 52.177264 C 191.16326 52.177264 187.19668 51.261982 184.4072 49.431386 C 181.7049 47.513618 180.35407 44.331737 180.35407 39.886003 L 180.35407 20.795795 C 180.35407 13.822095 178.044 8.635124 173.42392 5.2354453 C 168.80384 1.8357666 162.48401 0.092186043 154.46425 0.0050147944 z M 98.153659 2.5653459 C 39.261208 34.234842 49.075152 76.183642 49.075152 76.183642 C 107.98084 22.835926 88.339715 22.826125 147.22881 76.173055 C 147.22881 76.173055 157.04555 34.23707 98.153659 2.5653459 z M 69.112204 70.954326 A 20.099239 20.099238 0 0 0 49.012848 91.053065 A 20.099239 20.099238 0 0 0 69.112204 111.15236 A 20.099239 20.099238 0 0 0 89.21156 91.053065 A 20.099239 20.099238 0 0 0 69.112204 70.954326 z M 127.11029 70.962127 A 20.099239 20.099238 0 0 0 107.01093 91.060865 A 20.099239 20.099238 0 0 0 127.11029 111.16016 A 20.099239 20.099238 0 0 0 147.20916 91.060865 A 20.099239 20.099238 0 0 0 127.11029 70.962127 z "
       transform="scale(1.0782466,0.92743162)"
       inkscape:label="Kraken-Logo" />
  </g>
</svg>
