<?xml version="1.0" encoding="UTF-8" standalone="no"?>
<!-- Created with Inkscape (http://www.inkscape.org/) -->

<svg
   width="800"
   height="800"
   viewBox="0 0 211.66667 211.66668"
   version="1.1"
   id="svg1310"
   inkscape:version="1.2.1 (9c6d41e410, 2022-07-14)"
   sodipodi:docname="kraken-profile.svg"
   inkscape:export-filename="krakenlogo-light-4.png"
   inkscape:export-xdpi="300"
   inkscape:export-ydpi="300"
   xmlns:inkscape="http://www.inkscape.org/namespaces/inkscape"
   xmlns:sodipodi="http://sodipodi.sourceforge.net/DTD/sodipodi-0.dtd"
   xmlns="http://www.w3.org/2000/svg"
   xmlns:svg="http://www.w3.org/2000/svg">
  <sodipodi:namedview
     id="namedview1312"
     pagecolor="#ffffff"
     bordercolor="#000000"
     borderopacity="0.25"
     inkscape:showpageshadow="2"
     inkscape:pageopacity="0"
     inkscape:pagecheckerboard="0"
     inkscape:deskcolor="#d1d1d1"
     inkscape:document-units="mm"
     showgrid="true"
     inkscape:zoom="1"
     inkscape:cx="171.5"
     inkscape:cy="390.5"
     inkscape:window-width="2560"
     inkscape:window-height="1494"
     inkscape:window-x="2869"
     inkscape:window-y="163"
     inkscape:window-maximized="1"
     inkscape:current-layer="layer3"
     showguides="false">
    <inkscape:grid
       type="xygrid"
       id="grid1314"
       empspacing="40"
       originx="0"
       originy="0" />
    <sodipodi:guide
       position="78.448959,145.85157"
       orientation="0,-1"
       id="guide1538"
       inkscape:locked="false" />
    <sodipodi:guide
       position="42.301296,179.91564"
       orientation="0,-1"
       id="guide1566"
       inkscape:locked="false" />
  </sodipodi:namedview>
  <defs
     id="defs1307" />
  <g
     inkscape:groupmode="layer"
     id="layer3"
     inkscape:label="bg">
    <rect
       style="fill:#ffffff;stroke-width:0.264583"
       id="rect10395"
       width="211.66667"
       height="211.93124"
       x="0.26458335"
       y="0.52916664" />
  </g>
  <g
     inkscape:label="Layer 1"
     inkscape:groupmode="layer"
     id="layer1">
    <path
       id="text1370"
       style="font-size:130.757px;fill:#000000;stroke-width:0.212406"
       d="m 60.295415,52.916667 c -6.203478,0 -11.243608,1.57769 -15.120783,4.733125 -3.877173,3.155434 -5.815924,7.969757 -5.815924,14.442443 V 90.05401 c 0,4.045428 -1.127704,6.917462 -3.383514,8.616543 -2.185316,1.699077 -5.35771,2.589227 -9.516861,2.670137 v 8.85961 c 4.159151,0 7.331545,0.88964 9.516861,2.66963 2.25581,1.69908 3.383514,4.61225 3.383514,8.73859 v 17.84024 c 0,6.47268 1.868123,11.2865 5.604309,14.44194 3.736187,3.15542 8.846943,4.77374 15.332398,4.85465 v -8.73809 c -3.736186,-0.0809 -6.62646,-1.01116 -8.670788,-2.79115 -2.044328,-1.69908 -3.06648,-4.531 -3.06648,-8.49552 v -17.84024 c 0,-8.33359 -3.841799,-13.26927 -11.525653,-14.80653 v -0.72818 c 7.683854,-1.53726 11.525653,-6.472941 11.525653,-14.806526 V 73.06296 c 0,-3.96452 1.022152,-6.796443 3.06648,-8.495524 2.114822,-1.779989 5.005096,-2.750876 8.670788,-2.912693 z m 91.075835,0.0047 v 8.738594 c 3.73618,0.08091 6.62646,1.011169 8.67079,2.791158 2.04432,1.699081 3.06647,4.531004 3.06647,8.495525 v 17.718705 c 0,8.333584 3.84181,13.269271 11.52566,14.806531 v 0.72818 c -7.68385,1.53726 -11.52566,6.47243 -11.52566,14.80601 v 17.59768 c 0,3.96452 -1.05746,6.79644 -3.17228,8.49552 -2.04433,1.77999 -4.89929,2.75088 -8.56498,2.91269 V 158.75 c 6.20347,0 11.2436,-1.57769 15.12078,-4.73312 3.87717,-3.15544 5.81592,-7.96924 5.81592,-14.44193 v -18.08331 c 0,-4.04543 1.0924,-6.91746 3.27771,-8.61654 2.25581,-1.69908 5.46352,-2.58923 9.62267,-2.67014 v -8.85961 c -4.15915,0 -7.36686,-0.84953 -9.62267,-2.548609 -2.18531,-1.779988 -3.27771,-4.733273 -3.27771,-8.859611 V 72.218425 c 0,-6.472687 -1.86812,-11.28701 -5.6043,-14.442444 -3.73619,-3.155435 -8.84695,-4.773751 -15.3324,-4.85466 z m -45.53753,2.376389 C 58.208281,84.692013 66.14467,123.62708 66.14467,123.62708 c 47.63614,-49.515048 31.752661,-49.524145 79.37538,-0.01 0,0 7.93865,-38.923173 -39.68633,-68.319497 z M 82.348333,118.7734 a 16.253952,18.655244 0 0 0 -16.254047,18.65478 16.253952,18.655244 0 0 0 16.254047,18.6553 16.253952,18.655244 0 0 0 16.254046,-18.6553 16.253952,18.655244 0 0 0 -16.254046,-18.65478 z m 46.902177,0.007 a 16.253952,18.655244 0 0 0 -16.25405,18.65482 16.253952,18.655244 0 0 0 16.25405,18.65531 16.253952,18.655244 0 0 0 16.25365,-18.65531 16.253952,18.655244 0 0 0 -16.25365,-18.65478 z" />
  </g>
</svg>
