<?xml version="1.0" encoding="UTF-8" standalone="no"?>
<!-- Created with Inkscape (http://www.inkscape.org/) -->

<svg
   width="800"
   height="800"
   viewBox="0 0 200 200"
   version="1.1"
   id="svg2666"
   inkscape:version="1.2.1 (9c6d41e410, 2022-07-14)"
   sodipodi:docname="YoHo-Logo.svg"
   xmlns:inkscape="http://www.inkscape.org/namespaces/inkscape"
   xmlns:sodipodi="http://sodipodi.sourceforge.net/DTD/sodipodi-0.dtd"
   xmlns="http://www.w3.org/2000/svg"
   xmlns:svg="http://www.w3.org/2000/svg">
  <sodipodi:namedview
     id="namedview2668"
     pagecolor="#ffffff"
     bordercolor="#000000"
     borderopacity="0.25"
     inkscape:showpageshadow="2"
     inkscape:pageopacity="0.0"
     inkscape:pagecheckerboard="0"
     inkscape:deskcolor="#d1d1d1"
     inkscape:document-units="px"
     showgrid="true"
     inkscape:zoom="0.84096521"
     inkscape:cx="420.94488"
     inkscape:cy="411.432"
     inkscape:window-width="2560"
     inkscape:window-height="1494"
     inkscape:window-x="2869"
     inkscape:window-y="163"
     inkscape:window-maximized="1"
     inkscape:current-layer="layer1">
    <inkscape:grid
       type="xygrid"
       id="grid3033"
       empspacing="20" />
  </sodipodi:namedview>
  <defs
     id="defs2663">
    <inkscape:path-effect
       effect="bend_path"
       id="path-effect3416"
       is_visible="true"
       lpeversion="1"
       bendpath="M 52.521859,105.83385 H 158.75827"
       prop_scale="1"
       scale_y_rel="false"
       vertical="false"
       hide_knot="false" />
    <inkscape:path-effect
       effect="knot"
       id="path-effect3406"
       is_visible="true"
       lpeversion="1"
       switcher_size="15.2"
       interruption_width="3"
       prop_to_stroke_width="true"
       add_stroke_width="inkscape_1.0_and_up"
       both="false"
       inverse_width="false"
       add_other_stroke_width="inkscape_1.0_and_up"
       crossing_points_vector="" />
    <inkscape:path-effect
       effect="simplify"
       id="path-effect3404"
       is_visible="true"
       lpeversion="1"
       steps="5"
       threshold="0.0025"
       smooth_angles="30"
       helper_size="25"
       simplify_individual_paths="false"
       simplify_just_coalesce="false" />
    <inkscape:path-effect
       effect="mirror_symmetry"
       start_point="99.777335,160.11931"
       end_point="73.414759,172.3022"
       center_point="86.596047,166.21076"
       id="path-effect3180"
       is_visible="true"
       lpeversion="1.2"
       lpesatellites=""
       mode="free"
       discard_orig_path="false"
       fuse_paths="true"
       oposite_fuse="false"
       split_items="false"
       split_open="false"
       link_styles="false" />
  </defs>
  <g
     inkscape:label="Layer 1"
     inkscape:groupmode="layer"
     id="layer1">
    <rect
       style="display:inline;fill:#c3cad8;fill-opacity:1;stroke:#0f2029;stroke-width:2.54625;stroke-dasharray:none;stroke-opacity:1"
       id="rect11790"
       width="197.45375"
       height="197.45375"
       x="1.2731245"
       y="1.2731245"
       ry="9.8898659" />
    <path
       style="color:#000000;font-size:71.3767px;font-family:'Showcard Gothic';-inkscape-font-specification:'Showcard Gothic';display:inline;fill:#112733;fill-opacity:1;stroke:none;stroke-width:0.75007"
       d="m 78.804614,105.49285 0.02797,0.39655 c 0.628899,8.72656 1.022337,15.52493 1.179334,20.39048 v 0.002 l 0.774344,19.07972 h 15.495731 l 0.237939,-11.465 c 0.22952,0.47561 0.551475,1.09477 0.687375,1.42494 l 0.002,0.005 1.539489,3.53646 0.37894,-0.23142 c 0.434259,-0.26572 1.230234,-0.64703 2.354844,-1.11802 l 0.005,-0.002 c 0.70967,-0.28837 1.05398,-0.41461 1.39964,-0.5414 l 0.28353,8.39175 h 14.10069 l 0.0146,-0.35403 c 0.34936,-7.9961 0.59456,-14.23463 0.73448,-18.72032 v -0.008 c 0.48897,-9.41833 0.88314,-16.21959 1.17974,-20.39049 l 0.0276,-0.3954 h -0.40849 -17.46553 l 1.33797,24.0235 c -1.06065,0.0932 -2.0015,0.16238 -2.64834,0.177 l -0.005,0.002 h -0.004 c -1.035918,0.045 -2.13032,-5.5e-4 -3.253712,-0.0913 l 1.233748,-24.11117 z"
       id="path6540" />
    <path
       style="color:#000000;font-size:71.3767px;font-family:'Showcard Gothic';-inkscape-font-specification:'Showcard Gothic';display:inline;fill:#112733;fill-opacity:1;stroke:none;stroke-width:0.75007"
       d="m 37.204339,54.123501 0.340619,0.558249 c 2.637287,4.328331 4.644859,7.731264 6.021199,10.203282 2.114041,4.041774 3.615453,6.953034 4.523084,8.766849 0.500413,4.832341 0.823609,8.144779 0.962092,9.87607 0.244588,4.635255 0.401928,8.005243 0.471656,10.105963 l 0.01192,0.35825 h 14.148573 l 0.02069,-0.34982 c 0.244688,-4.314392 0.419567,-7.63535 0.524533,-9.964581 0.329055,-4.325191 0.596403,-7.655353 0.804997,-10.024731 2.233986,-4.324515 4.017417,-7.709253 5.334979,-10.118604 l 0.0016,-0.0016 5.22961,-9.409395 h -0.637575 -9.676069 l -0.07471,0.275486 c -0.610572,2.237909 -1.109698,3.956971 -1.491218,5.153749 -1.95e-4,6.14e-4 1.96e-4,0.0022 0,0.0028 -0.97834,2.632548 -1.700366,4.449415 -2.325337,5.964491 l -2.165179,-5.917363 -0.003,-0.01 c -0.78324,-2.368447 -1.332775,-4.106585 -1.643712,-5.19781 l -0.07625,-0.27127 z"
       id="path6534" />
    <g
       id="g6305"
       style="display:none">
      <path
         style="fill:none;fill-opacity:1;stroke:#ede2dd;stroke-width:2.5;stroke-dasharray:none;stroke-dashoffset:0;stroke-opacity:1"
         d="m 49.199419,96.169259 c 0,-41.31746 -0.08036,-47.171031 47.093749,-47.171031"
         id="path4403"
         sodipodi:nodetypes="cc" />
      <path
         id="path957"
         style="fill:#0f2029;fill-opacity:1;stroke:#000000;stroke-width:2.55209;stroke-dasharray:none"
         d="M 100,51.276045 A 48.723866,48.723874 0 0 0 51.276045,100 48.723866,48.723874 0 0 0 100,148.72395 48.723866,48.723874 0 0 0 148.72395,100 48.723866,48.723874 0 0 0 100,51.276045 Z m 0,25.180941 A 23.542777,23.542781 0 0 1 123.54301,100 23.542777,23.542781 0 0 1 100,123.54302 23.542777,23.542781 0 0 1 76.456986,100 23.542777,23.542781 0 0 1 100,76.456986 Z" />
      <path
         style="fill:none;fill-opacity:1;stroke:#ede2dd;stroke-width:2.5;stroke-dasharray:none;stroke-dashoffset:0;stroke-opacity:1"
         d="m 151.04316,96.169259 c 0,-41.31746 0.0804,-47.171031 -47.09375,-47.171031"
         id="path5564"
         sodipodi:nodetypes="cc" />
      <rect
         style="fill:#f9d877;fill-opacity:1;stroke:#c8ae60;stroke-width:1;stroke-dasharray:none;stroke-opacity:1"
         id="rect3244"
         width="7.5"
         height="30"
         x="96.39727"
         y="47.939556"
         ry="0" />
      <path
         style="fill:none;fill-opacity:1;stroke:#ede2dd;stroke-width:2.5;stroke-dasharray:none;stroke-dashoffset:0;stroke-opacity:1"
         d="m 151.04316,103.74823 c 0,41.31746 0.0804,47.17103 -47.09375,47.17103"
         id="path5566"
         sodipodi:nodetypes="cc" />
      <path
         style="fill:none;fill-opacity:1;stroke:#ede2dd;stroke-width:2.5;stroke-dasharray:none;stroke-dashoffset:0;stroke-opacity:1"
         d="m 49.19942,103.74823 c 0,41.31746 -0.0804,47.17103 47.09375,47.17103"
         id="path6294"
         sodipodi:nodetypes="cc" />
      <rect
         style="fill:#f9d877;fill-opacity:1;stroke:#c8ae60;stroke-width:1;stroke-dasharray:none;stroke-opacity:1"
         id="rect4037"
         width="7.5"
         height="30"
         x="96.39727"
         y="122.33324"
         ry="0" />
      <rect
         style="fill:#f9d877;fill-opacity:1;stroke:#c8ae60;stroke-width:1;stroke-dasharray:none;stroke-opacity:1"
         id="rect4039"
         width="7.5"
         height="30"
         x="96.25"
         y="122.53128"
         ry="0"
         transform="matrix(0,1,1,0,0,0)" />
      <rect
         style="fill:#f9d877;fill-opacity:1;stroke:#c8ae60;stroke-width:1;stroke-dasharray:none;stroke-opacity:1"
         id="rect4041"
         width="7.5"
         height="30"
         x="96.25"
         y="47.617359"
         ry="0"
         transform="matrix(0,1,1,0,0,0)" />
    </g>
    <g
       id="g6500"
       transform="matrix(0.78469082,0,0,0.78469082,-14.706529,25.57929)">
      <path
         style="color:#000000;fill:#ede2dd;-inkscape-stroke:none"
         d="m 140.52539,36.390625 c -2.35775,0.14141 -4.58868,1.317109 -7.10352,3.310547 -2.51483,1.993437 -5.34495,4.824345 -8.9414,8.414062 l 0.86914,0.869141 c 3.59673,-3.589999 6.41439,-6.400823 8.83594,-8.320313 2.42154,-1.919489 4.41581,-2.927143 6.41211,-3.046875 1.99629,-0.119731 4.09122,0.634529 6.7539,2.480469 2.66268,1.84594 5.85378,4.771601 9.95117,8.861328 l 0.86914,-0.871093 c -4.11539,-4.107696 -7.33563,-7.072252 -10.11914,-9.001954 -2.7835,-1.929701 -5.16959,-2.836722 -7.52734,-2.695312 z"
         id="path6467" />
      <path
         style="color:#000000;fill:#0f2029;stroke-width:1.25552;-inkscape-stroke:none"
         d="m 158.2349,50.602917 a 23.947537,23.992451 89.99749 0 0 -33.9305,0 23.947537,23.992451 89.99749 0 0 0,33.866989 23.947537,23.992451 89.99749 0 0 33.9305,0 23.947537,23.992451 89.99749 0 0 0,-33.866989 z m -8.76778,8.75137 a 11.571157,11.592859 89.997402 0 1 0,16.364249 11.571157,11.592859 89.997402 0 1 -16.39494,4e-6 11.571157,11.592859 89.997402 0 1 0,-16.364253 11.571157,11.592859 89.997402 0 1 16.39494,0 z"
         id="path6464" />
      <path
         style="color:#000000;fill:#000000;-inkscape-stroke:none"
         d="m 141.26953,42.964844 c -6.30192,0 -12.60332,2.397463 -17.4082,7.193359 -9.60979,9.591766 -9.60979,25.164097 0,34.755859 9.60975,9.591793 25.20665,9.591793 34.8164,0 9.60979,-9.591766 9.60979,-25.164096 0,-34.755859 -4.80487,-4.795896 -11.10628,-7.193359 -17.4082,-7.193359 z m 0,1.248047 c 5.9785,0 11.95673,2.277761 16.52149,6.833984 9.12954,9.112418 9.12954,23.866094 0,32.978516 -9.12952,9.112446 -23.91347,9.112446 -33.04297,0 -9.12954,-9.112419 -9.12954,-23.866095 0,-32.978516 4.56475,-4.556223 10.54298,-6.833984 16.52148,-6.833984 z m 0,11.128906 c -3.12861,0 -6.25691,1.18906 -8.64062,3.568359 -4.76753,4.758506 -4.76753,12.493449 0,17.251953 4.76743,4.758598 12.51382,4.7586 17.28125,0 4.76752,-4.758505 4.76752,-12.493449 0,-17.251953 -2.38372,-2.379299 -5.51201,-3.568359 -8.64063,-3.568359 z m 0,1.248047 c 2.8052,0 5.61032,1.069363 7.75391,3.208984 4.28727,4.279158 4.28727,11.19545 0,15.474609 -4.28719,4.279245 -11.22063,4.279243 -15.50782,0 -4.28727,-4.279158 -4.28727,-11.195449 0,-15.474609 2.1436,-2.139621 4.94872,-3.208984 7.75391,-3.208984 z"
         id="path6461" />
      <path
         style="color:#000000;fill:#ede2dd;-inkscape-stroke:none"
         d="m 160.83789,50.748047 -0.86914,0.871094 c 4.0974,4.089731 7.02958,7.274063 8.87891,9.93164 1.84932,2.657578 2.60231,4.748689 2.48242,6.740235 -0.1199,1.991545 -1.12774,3.983442 -3.05078,6.40039 -1.92305,2.416949 -4.74116,5.228361 -8.33789,8.81836 l 0.86914,0.86914 c 3.59645,-3.589717 6.43246,-6.411693 8.42968,-8.921875 1.99723,-2.510181 3.17663,-4.737455 3.31836,-7.091797 0.14174,-2.354341 -0.76972,-4.737215 -2.70312,-7.515625 -1.93341,-2.778409 -4.90217,-5.993863 -9.01758,-10.101562 z"
         id="path6458" />
      <path
         style="color:#000000;fill:#f9d877;stroke-width:0.491956;-inkscape-stroke:none"
         d="m 158.14221,48.191266 2.61143,2.606546 -10.44574,10.426182 -2.61143,-2.606545 z"
         id="path6455" />
      <path
         style="color:#000000;fill:#c8ae60;-inkscape-stroke:none"
         d="m 158.14212,47.845022 -0.17279,0.172472 -10.62068,10.600799 2.95963,2.954094 10.79348,-10.773271 z m 1e-5,0.692651 2.2643,2.260062 -10.09815,10.079245 -2.2643,-2.260063 z"
         id="path6452" />
      <path
         style="color:#000000;fill:#ede2dd;-inkscape-stroke:none"
         d="m 157.30273,86.142578 c -3.59673,3.59 -6.41439,6.402775 -8.83593,8.322266 -2.42154,1.919491 -4.41582,2.927143 -6.41211,3.046875 -1.99629,0.119731 -4.09123,-0.634528 -6.75391,-2.480469 -2.66268,-1.845941 -5.85377,-4.771599 -9.95117,-8.861328 l -0.86914,0.871094 c 4.1154,4.107697 7.33564,7.072251 10.11914,9.001953 2.7835,1.929702 5.1696,2.836723 7.52734,2.695312 2.35775,-0.14141 4.59064,-1.317108 7.10547,-3.310547 2.51483,-1.993438 5.343,-4.824344 8.93945,-8.414062 z"
         id="path6449" />
      <path
         style="color:#000000;fill:#ede2dd;-inkscape-stroke:none"
         d="m 121.8418,50.748047 c -3.59645,3.589717 -6.43247,6.413647 -8.42969,8.923828 -1.99722,2.510181 -3.17662,4.737455 -3.31836,7.091797 -0.14174,2.354341 0.76972,4.737215 2.70313,7.515625 1.9334,2.77841 4.90217,5.99191 9.01757,10.099609 l 0.86914,-0.86914 c -4.0974,-4.089731 -7.02958,-7.274064 -8.8789,-9.931641 -1.84932,-2.657577 -2.60232,-4.748689 -2.48242,-6.740234 0.11989,-1.991546 1.12969,-3.983442 3.05273,-6.400391 1.92304,-2.416949 4.7392,-5.228361 8.33594,-8.818359 z"
         id="path6446" />
      <path
         style="color:#000000;fill:#f9d877;stroke-width:0.491956;-inkscape-stroke:none"
         d="m 132.23898,74.046005 2.61143,2.606545 -10.44574,10.426183 -2.61143,-2.606546 z"
         id="path6443" />
      <path
         style="color:#000000;fill:#c8ae60;-inkscape-stroke:none"
         d="m 132.23944,73.699217 -0.17418,0.173851 -10.6193,10.59942 2.95964,2.954094 10.79347,-10.773271 z m -0.001,0.694029 2.2643,2.260063 -10.09676,10.077865 -2.26431,-2.260062 z"
         id="path6440" />
      <path
         style="color:#000000;fill:#f9d877;stroke-width:0.491956;-inkscape-stroke:none"
         d="m 150.42056,74.063648 -2.61143,2.606545 10.44573,10.426181 2.61144,-2.606545 z"
         id="path6437" />
      <path
         style="color:#000000;fill:#c8ae60;-inkscape-stroke:none"
         d="m 150.42026,73.715774 0.17417,0.173849 10.62068,10.6008 -2.95963,2.954095 -10.79486,-10.774648 z m 0,0.695408 -2.26293,2.258689 10.09815,10.079246 2.26293,-2.258688 z"
         id="path6434" />
      <path
         style="color:#000000;fill:#f9d877;stroke-width:0.491956;-inkscape-stroke:none"
         d="m 124.33619,48.028107 -2.61144,2.606545 10.44574,10.426181 2.61143,-2.606545 z"
         id="path6431" />
      <path
         style="color:#000000;fill:#c8ae60;-inkscape-stroke:none"
         d="m 124.33648,47.680827 0.17418,0.173856 10.61929,10.599415 -2.95963,2.954095 -10.79348,-10.773271 z m 0,0.695408 -2.26293,2.258688 10.09677,10.077869 2.26293,-2.258689 z"
         id="path6428" />
    </g>
    <g
       id="g6530"
       transform="matrix(0.78469082,0,0,0.78469082,35.99111,77.368884)">
      <path
         style="color:#000000;fill:#ede2dd;-inkscape-stroke:none"
         d="m 140.52539,36.390625 c -2.35775,0.14141 -4.58868,1.317109 -7.10352,3.310547 -2.51483,1.993437 -5.34495,4.824345 -8.9414,8.414062 l 0.86914,0.869141 c 3.59673,-3.589999 6.41439,-6.400823 8.83594,-8.320313 2.42154,-1.919489 4.41581,-2.927143 6.41211,-3.046875 1.99629,-0.119731 4.09122,0.634529 6.7539,2.480469 2.66268,1.84594 5.85378,4.771601 9.95117,8.861328 l 0.86914,-0.871093 c -4.11539,-4.107696 -7.33563,-7.072252 -10.11914,-9.001954 -2.7835,-1.929701 -5.16959,-2.836722 -7.52734,-2.695312 z"
         id="path6502" />
      <path
         style="color:#000000;fill:#0f2029;stroke-width:1.25552;-inkscape-stroke:none"
         d="m 158.2349,50.602917 a 23.947537,23.992451 89.99749 0 0 -33.9305,0 23.947537,23.992451 89.99749 0 0 0,33.866989 23.947537,23.992451 89.99749 0 0 33.9305,0 23.947537,23.992451 89.99749 0 0 0,-33.866989 z m -8.76778,8.75137 a 11.571157,11.592859 89.997402 0 1 0,16.364249 11.571157,11.592859 89.997402 0 1 -16.39494,4e-6 11.571157,11.592859 89.997402 0 1 0,-16.364253 11.571157,11.592859 89.997402 0 1 16.39494,0 z"
         id="path6504" />
      <path
         style="color:#000000;fill:#000000;-inkscape-stroke:none"
         d="m 141.26953,42.964844 c -6.30192,0 -12.60332,2.397463 -17.4082,7.193359 -9.60979,9.591766 -9.60979,25.164097 0,34.755859 9.60975,9.591793 25.20665,9.591793 34.8164,0 9.60979,-9.591766 9.60979,-25.164096 0,-34.755859 -4.80487,-4.795896 -11.10628,-7.193359 -17.4082,-7.193359 z m 0,1.248047 c 5.9785,0 11.95673,2.277761 16.52149,6.833984 9.12954,9.112418 9.12954,23.866094 0,32.978516 -9.12952,9.112446 -23.91347,9.112446 -33.04297,0 -9.12954,-9.112419 -9.12954,-23.866095 0,-32.978516 4.56475,-4.556223 10.54298,-6.833984 16.52148,-6.833984 z m 0,11.128906 c -3.12861,0 -6.25691,1.18906 -8.64062,3.568359 -4.76753,4.758506 -4.76753,12.493449 0,17.251953 4.76743,4.758598 12.51382,4.7586 17.28125,0 4.76752,-4.758505 4.76752,-12.493449 0,-17.251953 -2.38372,-2.379299 -5.51201,-3.568359 -8.64063,-3.568359 z m 0,1.248047 c 2.8052,0 5.61032,1.069363 7.75391,3.208984 4.28727,4.279158 4.28727,11.19545 0,15.474609 -4.28719,4.279245 -11.22063,4.279243 -15.50782,0 -4.28727,-4.279158 -4.28727,-11.195449 0,-15.474609 2.1436,-2.139621 4.94872,-3.208984 7.75391,-3.208984 z"
         id="path6506" />
      <path
         style="color:#000000;fill:#ede2dd;-inkscape-stroke:none"
         d="m 160.83789,50.748047 -0.86914,0.871094 c 4.0974,4.089731 7.02958,7.274063 8.87891,9.93164 1.84932,2.657578 2.60231,4.748689 2.48242,6.740235 -0.1199,1.991545 -1.12774,3.983442 -3.05078,6.40039 -1.92305,2.416949 -4.74116,5.228361 -8.33789,8.81836 l 0.86914,0.86914 c 3.59645,-3.589717 6.43246,-6.411693 8.42968,-8.921875 1.99723,-2.510181 3.17663,-4.737455 3.31836,-7.091797 0.14174,-2.354341 -0.76972,-4.737215 -2.70312,-7.515625 -1.93341,-2.778409 -4.90217,-5.993863 -9.01758,-10.101562 z"
         id="path6508" />
      <path
         style="color:#000000;fill:#f9d877;stroke-width:0.491956;-inkscape-stroke:none"
         d="m 158.14221,48.191266 2.61143,2.606546 -10.44574,10.426182 -2.61143,-2.606545 z"
         id="path6510" />
      <path
         style="color:#000000;fill:#c8ae60;-inkscape-stroke:none"
         d="m 158.14212,47.845022 -0.17279,0.172472 -10.62068,10.600799 2.95963,2.954094 10.79348,-10.773271 z m 1e-5,0.692651 2.2643,2.260062 -10.09815,10.079245 -2.2643,-2.260063 z"
         id="path6512" />
      <path
         style="color:#000000;fill:#ede2dd;-inkscape-stroke:none"
         d="m 157.30273,86.142578 c -3.59673,3.59 -6.41439,6.402775 -8.83593,8.322266 -2.42154,1.919491 -4.41582,2.927143 -6.41211,3.046875 -1.99629,0.119731 -4.09123,-0.634528 -6.75391,-2.480469 -2.66268,-1.845941 -5.85377,-4.771599 -9.95117,-8.861328 l -0.86914,0.871094 c 4.1154,4.107697 7.33564,7.072251 10.11914,9.001953 2.7835,1.929702 5.1696,2.836723 7.52734,2.695312 2.35775,-0.14141 4.59064,-1.317108 7.10547,-3.310547 2.51483,-1.993438 5.343,-4.824344 8.93945,-8.414062 z"
         id="path6514" />
      <path
         style="color:#000000;fill:#ede2dd;-inkscape-stroke:none"
         d="m 121.8418,50.748047 c -3.59645,3.589717 -6.43247,6.413647 -8.42969,8.923828 -1.99722,2.510181 -3.17662,4.737455 -3.31836,7.091797 -0.14174,2.354341 0.76972,4.737215 2.70313,7.515625 1.9334,2.77841 4.90217,5.99191 9.01757,10.099609 l 0.86914,-0.86914 c -4.0974,-4.089731 -7.02958,-7.274064 -8.8789,-9.931641 -1.84932,-2.657577 -2.60232,-4.748689 -2.48242,-6.740234 0.11989,-1.991546 1.12969,-3.983442 3.05273,-6.400391 1.92304,-2.416949 4.7392,-5.228361 8.33594,-8.818359 z"
         id="path6516" />
      <path
         style="color:#000000;fill:#f9d877;stroke-width:0.491956;-inkscape-stroke:none"
         d="m 132.23898,74.046005 2.61143,2.606545 -10.44574,10.426183 -2.61143,-2.606546 z"
         id="path6518" />
      <path
         style="color:#000000;fill:#c8ae60;-inkscape-stroke:none"
         d="m 132.23944,73.699217 -0.17418,0.173851 -10.6193,10.59942 2.95964,2.954094 10.79347,-10.773271 z m -0.001,0.694029 2.2643,2.260063 -10.09676,10.077865 -2.26431,-2.260062 z"
         id="path6520" />
      <path
         style="color:#000000;fill:#f9d877;stroke-width:0.491956;-inkscape-stroke:none"
         d="m 150.42056,74.063648 -2.61143,2.606545 10.44573,10.426181 2.61144,-2.606545 z"
         id="path6522" />
      <path
         style="color:#000000;fill:#c8ae60;-inkscape-stroke:none"
         d="m 150.42026,73.715774 0.17417,0.173849 10.62068,10.6008 -2.95963,2.954095 -10.79486,-10.774648 z m 0,0.695408 -2.26293,2.258689 10.09815,10.079246 2.26293,-2.258688 z"
         id="path6524" />
      <path
         style="color:#000000;fill:#f9d877;stroke-width:0.491956;-inkscape-stroke:none"
         d="m 124.33619,48.028107 -2.61144,2.606545 10.44574,10.426181 2.61143,-2.606545 z"
         id="path6526" />
      <path
         style="color:#000000;fill:#c8ae60;-inkscape-stroke:none"
         d="m 124.33648,47.680827 0.17418,0.173856 10.61929,10.599415 -2.95963,2.954095 -10.79348,-10.773271 z m 0,0.695408 -2.26293,2.258688 10.09677,10.077869 2.26293,-2.258689 z"
         id="path6528" />
    </g>
  </g>
</svg>
