<?xml version="1.0" encoding="UTF-8" standalone="no"?>
<!-- Created with Inkscape (http://www.inkscape.org/) -->

<svg
   width="800"
   height="800"
   viewBox="0 0 211.66666 211.66667"
   version="1.1"
   id="svg2666"
   inkscape:version="1.2.1 (9c6d41e410, 2022-07-14)"
   sodipodi:docname="YoHo-Logo.svg"
   xmlns:inkscape="http://www.inkscape.org/namespaces/inkscape"
   xmlns:sodipodi="http://sodipodi.sourceforge.net/DTD/sodipodi-0.dtd"
   xmlns="http://www.w3.org/2000/svg"
   xmlns:svg="http://www.w3.org/2000/svg">
  <sodipodi:namedview
     id="namedview2668"
     pagecolor="#ffffff"
     bordercolor="#000000"
     borderopacity="0.25"
     inkscape:showpageshadow="2"
     inkscape:pageopacity="0.0"
     inkscape:pagecheckerboard="0"
     inkscape:deskcolor="#d1d1d1"
     inkscape:document-units="mm"
     showgrid="true"
     inkscape:zoom="1.1893044"
     inkscape:cx="230.80718"
     inkscape:cy="479.27175"
     inkscape:window-width="2560"
     inkscape:window-height="1494"
     inkscape:window-x="2869"
     inkscape:window-y="163"
     inkscape:window-maximized="1"
     inkscape:current-layer="layer1">
    <inkscape:grid
       type="xygrid"
       id="grid3033"
       empspacing="20" />
  </sodipodi:namedview>
  <defs
     id="defs2663">
    <inkscape:path-effect
       effect="bend_path"
       id="path-effect3416"
       is_visible="true"
       lpeversion="1"
       bendpath="M 52.521859,105.83385 H 158.75827"
       prop_scale="1"
       scale_y_rel="false"
       vertical="false"
       hide_knot="false" />
    <inkscape:path-effect
       effect="knot"
       id="path-effect3406"
       is_visible="true"
       lpeversion="1"
       switcher_size="15.2"
       interruption_width="3"
       prop_to_stroke_width="true"
       add_stroke_width="inkscape_1.0_and_up"
       both="false"
       inverse_width="false"
       add_other_stroke_width="inkscape_1.0_and_up"
       crossing_points_vector="" />
    <inkscape:path-effect
       effect="simplify"
       id="path-effect3404"
       is_visible="true"
       lpeversion="1"
       steps="5"
       threshold="0.0025"
       smooth_angles="30"
       helper_size="25"
       simplify_individual_paths="false"
       simplify_just_coalesce="false" />
    <inkscape:path-effect
       effect="mirror_symmetry"
       start_point="99.777335,160.11931"
       end_point="73.414759,172.3022"
       center_point="86.596047,166.21076"
       id="path-effect3180"
       is_visible="true"
       lpeversion="1.2"
       lpesatellites=""
       mode="free"
       discard_orig_path="false"
       fuse_paths="true"
       oposite_fuse="false"
       split_items="false"
       split_open="false"
       link_styles="false" />
  </defs>
  <g
     inkscape:label="Layer 1"
     inkscape:groupmode="layer"
     id="layer1">
    <path
       id="path3391"
       style="color:#000000;font-size:71.3767px;font-family:'Showcard Gothic';-inkscape-font-specification:'Showcard Gothic';fill:#000000;stroke:none;stroke-width:1.01164;-inkscape-stroke:none"
       d="M 129.04225 33.081185 C 121.92605 33.081185 116.088 35.458517 111.65882 40.184111 L 111.65675 40.184111 C 106.96061 45.21616 104.63134 52.138098 104.63134 60.859334 C 104.63134 69.029156 106.77069 75.961867 111.0604 81.59812 L 111.05834 81.59812 C 115.6149 87.587993 121.66351 90.630644 129.04225 90.630644 C 136.21206 90.630644 142.16202 87.609856 146.7404 81.669434 L 146.74195 81.669434 C 151.10234 75.988185 153.27798 69.030569 153.27798 60.859334 C 153.27798 52.18345 150.94588 45.272798 146.25102 40.218734 C 141.8237 35.471725 136.04321 33.081185 129.04225 33.081185 z M 52.521859 35.106384 L 52.981262 35.85931 C 56.538241 41.697042 59.245906 46.286669 61.102214 49.620744 C 63.953474 55.071993 65.978471 58.998486 67.202616 61.444828 C 67.877534 67.962333 68.313441 72.429907 68.500212 74.764945 C 68.830097 81.016636 69.042306 85.561827 69.136348 88.395121 L 69.152368 88.878296 L 88.234924 88.878296 L 88.26283 88.40649 C 88.592847 82.587559 88.828711 78.108493 88.97028 74.967 C 89.414086 69.1335 89.774665 64.642022 90.056002 61.446379 C 93.069038 55.61379 95.474399 51.048705 97.251428 47.79915 L 97.253495 47.797083 L 104.30681 35.106384 L 103.44692 35.106384 L 90.396549 35.106384 L 90.29578 35.477938 C 89.472285 38.496265 88.799101 40.814809 88.284534 42.428935 C 88.284271 42.429764 88.284799 42.431852 88.284534 42.432552 C 86.965021 45.983138 85.991204 48.433597 85.148291 50.477022 L 82.228056 42.496114 L 82.223922 42.482678 C 81.167545 39.288291 80.426373 36.944017 80.007003 35.472253 L 79.904167 35.106384 L 52.521859 35.106384 z M 129.11357 57.853833 C 131.20256 57.853833 132.65315 58.557533 133.67194 60.021659 C 134.69075 61.485785 135.24704 63.777339 135.24704 66.90496 C 135.24704 69.295614 134.63543 71.604087 133.39858 73.85234 L 133.39651 73.85234 C 132.04937 76.315432 130.61049 77.402511 129.04225 77.402511 C 127.4163 77.402511 126.02866 76.345014 124.80013 73.935022 C 123.70366 71.781592 123.15579 69.468871 123.15579 66.974723 C 123.15579 63.822311 123.69853 61.507406 124.6911 60.031478 C 125.68366 58.555548 127.08789 57.853833 129.11357 57.853833 z M 134.52202 121.03706 C 127.40582 121.03706 121.56828 123.41439 117.1391 128.13998 L 117.13704 128.13998 C 112.44089 133.17203 110.10956 140.09397 110.10956 148.81521 C 110.10956 156.98503 112.24892 163.91774 116.53862 169.55399 C 121.0952 175.54386 127.14328 178.58652 134.52202 178.58652 C 141.69183 178.58652 147.6418 175.56573 152.22017 169.62531 L 152.22223 169.62531 C 156.58264 163.94406 158.75827 156.98644 158.75827 148.81521 C 158.75827 140.13932 156.42565 133.22867 151.73079 128.17461 C 147.30345 123.4276 141.52297 121.03706 134.52202 121.03706 z M 53.968282 123.06277 L 54.006006 123.59762 C 54.854221 135.36733 55.38486 144.53649 55.596606 151.09879 L 55.596606 151.10085 L 56.640987 176.83417 L 77.540487 176.83417 L 77.861397 161.37103 C 78.170963 162.01249 78.605187 162.84756 78.788472 163.29288 L 78.79054 163.29856 L 80.866899 168.06829 L 81.377979 167.75617 C 81.963686 167.39777 83.037226 166.88348 84.554012 166.24825 L 84.560213 166.2467 C 85.517374 165.85776 85.981765 165.6875 86.447953 165.51651 L 86.830359 176.83468 L 105.84832 176.83468 L 105.86796 176.35719 C 106.33917 165.57263 106.66988 157.15858 106.85859 151.10861 L 106.85859 151.09724 C 107.51806 138.3945 108.0497 129.22146 108.44971 123.59607 L 108.48692 123.06277 L 107.93605 123.06277 L 84.379862 123.06277 L 86.184403 155.4639 C 84.753889 155.58957 83.484927 155.6829 82.612528 155.70264 L 82.606327 155.70471 L 82.600643 155.70471 C 81.203477 155.76551 79.727424 155.70396 78.21228 155.58172 L 79.876261 123.06277 L 53.968282 123.06277 z M 134.59333 145.8097 C 136.68233 145.8097 138.13342 146.5134 139.15223 147.97753 C 140.17103 149.44166 140.72733 151.73372 140.72733 154.86135 C 140.72733 157.252 140.11571 159.55995 138.87886 161.80821 L 138.87679 161.80821 C 137.52967 164.27131 136.09026 165.3589 134.52202 165.3589 C 132.89608 165.3589 131.50895 164.30089 130.28042 161.89089 C 129.18394 159.73748 128.63608 157.42475 128.63608 154.93059 C 128.63608 151.77819 129.17675 149.46534 130.16932 147.98942 C 131.16188 146.51349 132.56765 145.8097 134.59333 145.8097 z " />
  </g>
</svg>
